<?xml version="1.0" standalone="no"?>
<!DOCTYPE svg PUBLIC "-//W3C//DTD SVG 20010904//EN"
 "http://www.w3.org/TR/2001/REC-SVG-20010904/DTD/svg10.dtd">
<svg version="1.0" xmlns="http://www.w3.org/2000/svg"
 width="375.000000pt" height="375.000000pt" viewBox="0 0 375.000000 375.000000"
 preserveAspectRatio="xMidYMid meet">
<metadata>
Created by potrace 1.14, written by Peter Selinger 2001-2017
</metadata>
<g transform="translate(0.000000,375.000000) scale(0.100000,-0.100000)"
fill="#000000" stroke="none">
<path d="M0 1875 l0 -1875 955 0 955 0 5 23 c2 12 46 312 96 667 50 355 142
1005 204 1445 187 1315 225 1586 225 1601 0 12 -169 14 -1220 14 l-1220 0 0
-1875z m1906 1184 c75 -36 136 -124 169 -245 25 -91 31 -301 12 -402 -28 -144
-91 -247 -181 -295 -40 -21 -53 -22 -418 -25 l-378 -3 0 -34 0 -35 240 0 240
0 0 -127 c0 -152 -15 -194 -81 -242 -118 -86 -422 -115 -635 -61 -90 23 -140
49 -180 92 -64 67 -64 69 -64 380 1 303 4 327 53 391 13 18 49 46 78 62 l54
30 320 5 c362 6 377 9 440 82 55 65 67 113 72 291 l5 157 106 0 c86 0 113 -4
148 -21z"/>
<path d="M1343 1888 c-33 -16 -53 -64 -42 -102 5 -17 9 -32 9 -33 0 -1 14 -10
31 -19 59 -30 119 8 119 75 0 32 -6 44 -31 65 -33 28 -51 31 -86 14z"/>
<path d="M3246 1064 c-61 -22 -102 -59 -131 -119 -22 -45 -27 -68 -26 -125 2
-135 56 -201 235 -285 116 -55 150 -82 161 -127 9 -34 -8 -64 -48 -88 -64 -40
-164 -16 -224 53 -18 21 -35 37 -38 37 -11 0 -145 -82 -145 -89 0 -3 16 -28
36 -54 65 -89 170 -137 299 -137 193 0 308 101 307 269 -1 137 -51 200 -234
291 -68 33 -133 72 -145 86 -43 47 -22 115 41 138 32 11 93 -12 120 -46 l25
-32 71 48 71 47 -28 37 c-41 54 -73 79 -122 97 -55 19 -173 19 -225 -1z"/>
<path d="M2738 709 l-3 -361 -28 -24 c-19 -16 -40 -24 -65 -24 -30 0 -43 8
-81 48 l-45 49 -73 -46 c-40 -25 -73 -48 -73 -51 0 -3 16 -26 35 -52 64 -87
153 -124 276 -116 128 10 213 80 238 198 7 31 11 185 11 395 l0 345 -95 0 -94
0 -3 -361z"/>
</g>
</svg>
